<svg xmlns="http://www.w3.org/2000/svg" xmlns:xlink="http://www.w3.org/1999/xlink" width="500" zoomAndPan="magnify" viewBox="0 0 375 374.999991" height="500" preserveAspectRatio="xMidYMid meet" version="1.0"><defs><clipPath id="d5e61a1f41"><path d="M 37.511719 63.5625 L 337.496094 63.5625 L 337.496094 113.421875 L 37.511719 113.421875 Z M 37.511719 63.5625 " clip-rule="nonzero"/></clipPath><clipPath id="a42176e41c"><path d="M 37.511719 162.121094 L 337.496094 162.121094 L 337.496094 213 L 37.511719 213 Z M 37.511719 162.121094 " clip-rule="nonzero"/></clipPath><clipPath id="4765e411a9"><path d="M 37.511719 262 L 337.496094 262 L 337.496094 311.8125 L 37.511719 311.8125 Z M 37.511719 262 " clip-rule="nonzero"/></clipPath></defs><rect x="-37.5" width="450" fill="#ffffff" y="-37.499999" height="449.999989" fill-opacity="1"/><rect x="-37.5" width="450" fill="#ffffff" y="-37.499999" height="449.999989" fill-opacity="1"/><g clip-path="url(#d5e61a1f41)"><path fill="#1e1e1e" d="M 312.699219 113.222656 L 62.304688 113.222656 C 48.609375 113.222656 37.511719 102.105469 37.511719 88.390625 C 37.511719 74.683594 48.609375 63.566406 62.304688 63.566406 L 312.699219 63.566406 C 326.394531 63.566406 337.492188 74.683594 337.492188 88.390625 C 337.492188 102.105469 326.394531 113.222656 312.699219 113.222656 " fill-opacity="1" fill-rule="nonzero"/></g><g clip-path="url(#a42176e41c)"><path fill="#1e1e1e" d="M 312.699219 212.539062 L 62.304688 212.539062 C 48.609375 212.539062 37.511719 201.425781 37.511719 187.710938 C 37.511719 173.996094 48.609375 162.882812 62.304688 162.882812 L 312.699219 162.882812 C 326.394531 162.882812 337.492188 173.996094 337.492188 187.710938 C 337.492188 201.425781 326.394531 212.539062 312.699219 212.539062 " fill-opacity="1" fill-rule="nonzero"/></g><g clip-path="url(#4765e411a9)"><path fill="#1e1e1e" d="M 312.699219 311.859375 L 62.304688 311.859375 C 48.609375 311.859375 37.511719 300.746094 37.511719 287.03125 C 37.511719 273.316406 48.609375 262.199219 62.304688 262.199219 L 312.699219 262.199219 C 326.394531 262.199219 337.492188 273.316406 337.492188 287.03125 C 337.492188 300.746094 326.394531 311.859375 312.699219 311.859375 " fill-opacity="1" fill-rule="nonzero"/></g></svg>